HIERARCHY
ROOT Hips
{
	OFFSET 0.000000 97.167313 0.000000
	CHANNELS 6 Xposition Yposition Zposition Xrotation Yrotation Zrotation
	JOINT Spine
	{
		OFFSET 0.000000 13.784798 0.064400
		CHANNELS 3 Xrotation Yrotation Zrotation
		JOINT Spine1
		{
			OFFSET 0.000000 12.037903 0.404700
			CHANNELS 3 Xrotation Yrotation Zrotation
			JOINT Spine2
			{
				OFFSET 0.000000 17.795601 0.420200
				CHANNELS 3 Xrotation Yrotation Zrotation
				JOINT Neck
				{
					OFFSET 0.000000 39.131302 11.954600
					CHANNELS 3 Xrotation Yrotation Zrotation
					JOINT Head
					{
						OFFSET 0.000000 14.456192 15.627699
						CHANNELS 3 Xrotation Yrotation Zrotation
						JOINT HeadTop_End
						{
							OFFSET 0.000000 15.703506 7.603401
							CHANNELS 3 Xrotation Yrotation Zrotation
							End Site
							{
								OFFSET 0.000000 17.447403 0.000000
							}
						}
					}
				}
				JOINT LeftShoulder
				{
					OFFSET 17.399500 24.608795 1.168800
					CHANNELS 3 Xrotation Yrotation Zrotation
					JOINT LeftArm
					{
						OFFSET 18.980635 5.765305 1.818600
						CHANNELS 3 Xrotation Yrotation Zrotation
						JOINT LeftForeArm
						{
							OFFSET 49.290169 0.000000 0.000000
							CHANNELS 3 Xrotation Yrotation Zrotation
							JOINT LeftHand
							{
								OFFSET 31.562012 0.000000 0.000000
								CHANNELS 3 Xrotation Yrotation Zrotation
								JOINT LeftHandThumb1
								{
									OFFSET 6.133995 -4.388519 7.076070
									CHANNELS 3 Xrotation Yrotation Zrotation
									JOINT LeftHandThumb2
									{
										OFFSET 6.037666 -3.485840 3.485847
										CHANNELS 3 Xrotation Yrotation Zrotation
										JOINT LeftHandThumb3
										{
											OFFSET 6.496506 -3.750763 3.750761
											CHANNELS 3 Xrotation Yrotation Zrotation
											JOINT LeftHandThumb4
											{
												OFFSET 5.616882 -3.242905 3.242910
												CHANNELS 3 Xrotation Yrotation Zrotation
												End Site
												{
													OFFSET -1.254608 7.132141 0.375429
												}
											}
										}
									}
								}
								JOINT LeftHandPinky1
								{
									OFFSET 18.920792 -0.453171 -11.426712
									CHANNELS 3 Xrotation Yrotation Zrotation
									JOINT LeftHandPinky2
									{
										OFFSET 4.919586 0.000000 0.000000
										CHANNELS 3 Xrotation Yrotation Zrotation
										JOINT LeftHandPinky3
										{
											OFFSET 5.233047 0.000000 0.000000
											CHANNELS 3 Xrotation Yrotation Zrotation
											JOINT LeftHandPinky4
											{
												OFFSET 5.571716 0.000000 0.000000
												CHANNELS 3 Xrotation Yrotation Zrotation
												End Site
												{
													OFFSET -3.459808 4.342407 -0.466164
												}
											}
										}
									}
								}
								JOINT LeftHandRing1
								{
									OFFSET 22.726120 -0.094986 -6.500475
									CHANNELS 3 Xrotation Yrotation Zrotation
									JOINT LeftHandRing2
									{
										OFFSET 6.408615 0.000000 0.000000
										CHANNELS 3 Xrotation Yrotation Zrotation
										JOINT LeftHandRing3
										{
											OFFSET 6.150223 0.000000 0.000000
											CHANNELS 3 Xrotation Yrotation Zrotation
											JOINT LeftHandRing4
											{
												OFFSET 6.145386 0.000000 0.000000
												CHANNELS 3 Xrotation Yrotation Zrotation
												End Site
												{
													OFFSET -3.671402 4.923981 -0.202372
												}
											}
										}
									}
								}
								JOINT LeftHandMiddle1
								{
									OFFSET 23.373947 0.000000 0.000001
									CHANNELS 3 Xrotation Yrotation Zrotation
									JOINT LeftHandMiddle2
									{
										OFFSET 6.996567 0.000000 0.000000
										CHANNELS 3 Xrotation Yrotation Zrotation
										JOINT LeftHandMiddle3
										{
											OFFSET 7.015945 0.000000 0.000000
											CHANNELS 3 Xrotation Yrotation Zrotation
											JOINT LeftHandMiddle4
											{
												OFFSET 7.721573 0.000000 0.000000
												CHANNELS 3 Xrotation Yrotation Zrotation
												End Site
												{
													OFFSET -4.651108 6.158463 0.251582
												}
											}
										}
									}
								}
								JOINT LeftHandIndex1
								{
									OFFSET 21.310577 -0.490082 6.209344
									CHANNELS 3 Xrotation Yrotation Zrotation
									JOINT LeftHandIndex2
									{
										OFFSET 7.536453 0.000000 0.000000
										CHANNELS 3 Xrotation Yrotation Zrotation
										JOINT LeftHandIndex3
										{
											OFFSET 7.512344 0.000000 0.000000
											CHANNELS 3 Xrotation Yrotation Zrotation
											JOINT LeftHandIndex4
											{
												OFFSET 10.212402 0.000000 0.000001
												CHANNELS 3 Xrotation Yrotation Zrotation
												End Site
												{
													OFFSET -5.180801 8.690506 1.388433
												}
											}
										}
									}
								}
							}
						}
					}
				}
				JOINT RightShoulder
				{
					OFFSET -17.399500 24.608795 1.168800
					CHANNELS 3 Xrotation Yrotation Zrotation
					JOINT RightArm
					{
						OFFSET -18.980635 5.765305 1.818600
						CHANNELS 3 Xrotation Yrotation Zrotation
						JOINT RightForeArm
						{
							OFFSET -49.290169 0.000000 0.000000
							CHANNELS 3 Xrotation Yrotation Zrotation
							JOINT RightHand
							{
								OFFSET -31.562012 0.000000 0.000000
								CHANNELS 3 Xrotation Yrotation Zrotation
								JOINT RightHandThumb1
								{
									OFFSET -6.133995 -4.388519 7.076070
									CHANNELS 3 Xrotation Yrotation Zrotation
									JOINT RightHandThumb2
									{
										OFFSET -6.037666 -3.485840 3.485847
										CHANNELS 3 Xrotation Yrotation Zrotation
										JOINT RightHandThumb3
										{
											OFFSET -6.496506 -3.750763 3.750761
											CHANNELS 3 Xrotation Yrotation Zrotation
											JOINT RightHandThumb4
											{
												OFFSET -5.616882 -3.242905 3.242910
												CHANNELS 3 Xrotation Yrotation Zrotation
												End Site
												{
													OFFSET 1.254608 7.132141 0.375429
												}
											}
										}
									}
								}
								JOINT RightHandIndex1
								{
									OFFSET -21.310577 -0.490082 6.209344
									CHANNELS 3 Xrotation Yrotation Zrotation
									JOINT RightHandIndex2
									{
										OFFSET -7.536453 0.000000 0.000000
										CHANNELS 3 Xrotation Yrotation Zrotation
										JOINT RightHandIndex3
										{
											OFFSET -7.512344 0.000000 0.000000
											CHANNELS 3 Xrotation Yrotation Zrotation
											JOINT RightHandIndex4
											{
												OFFSET -10.212402 0.000000 0.000001
												CHANNELS 3 Xrotation Yrotation Zrotation
												End Site
												{
													OFFSET 5.180801 8.690506 1.388433
												}
											}
										}
									}
								}
								JOINT RightHandMiddle1
								{
									OFFSET -23.373947 0.000000 0.000001
									CHANNELS 3 Xrotation Yrotation Zrotation
									JOINT RightHandMiddle2
									{
										OFFSET -6.996567 0.000000 0.000000
										CHANNELS 3 Xrotation Yrotation Zrotation
										JOINT RightHandMiddle3
										{
											OFFSET -7.015945 0.000000 0.000000
											CHANNELS 3 Xrotation Yrotation Zrotation
											JOINT RightHandMiddle4
											{
												OFFSET -7.721573 0.000000 0.000000
												CHANNELS 3 Xrotation Yrotation Zrotation
												End Site
												{
													OFFSET 4.651108 6.158463 0.251582
												}
											}
										}
									}
								}
								JOINT RightHandRing1
								{
									OFFSET -22.726120 -0.094986 -6.500475
									CHANNELS 3 Xrotation Yrotation Zrotation
									JOINT RightHandRing2
									{
										OFFSET -6.408615 0.000000 0.000000
										CHANNELS 3 Xrotation Yrotation Zrotation
										JOINT RightHandRing3
										{
											OFFSET -6.150223 0.000000 0.000000
											CHANNELS 3 Xrotation Yrotation Zrotation
											JOINT RightHandRing4
											{
												OFFSET -6.145386 0.000000 0.000000
												CHANNELS 3 Xrotation Yrotation Zrotation
												End Site
												{
													OFFSET 3.671402 4.923981 -0.202372
												}
											}
										}
									}
								}
								JOINT RightHandPinky1
								{
									OFFSET -18.920792 -0.453171 -11.426712
									CHANNELS 3 Xrotation Yrotation Zrotation
									JOINT RightHandPinky2
									{
										OFFSET -4.919586 0.000000 0.000000
										CHANNELS 3 Xrotation Yrotation Zrotation
										JOINT RightHandPinky3
										{
											OFFSET -5.233047 0.000000 0.000000
											CHANNELS 3 Xrotation Yrotation Zrotation
											JOINT RightHandPinky4
											{
												OFFSET -5.571716 0.000000 0.000000
												CHANNELS 3 Xrotation Yrotation Zrotation
												End Site
												{
													OFFSET 3.459808 4.342407 -0.466164
												}
											}
										}
									}
								}
							}
						}
					}
				}
			}
		}
	}
	JOINT LeftUpLeg
	{
		OFFSET 19.899099 -7.885101 -3.429500
		CHANNELS 3 Xrotation Yrotation Zrotation
		JOINT LeftLeg
		{
			OFFSET 1.745560 -36.997807 10.304700
			CHANNELS 3 Xrotation Yrotation Zrotation
			JOINT LeftFoot
			{
				OFFSET -1.745558 -29.803308 -13.615400
				CHANNELS 3 Xrotation Yrotation Zrotation
				JOINT LeftToeBase
				{
					OFFSET 1.181900 -18.539904 15.226099
					CHANNELS 3 Xrotation Yrotation Zrotation
					JOINT LeftToe_End
					{
						OFFSET -0.863701 1.402801 16.534700
						CHANNELS 3 Xrotation Yrotation Zrotation
						End Site
						{
							OFFSET 0.000000 16.616566 0.000000
						}
					}
				}
			}
		}
	}
	JOINT RightUpLeg
	{
		OFFSET -19.899099 -7.885101 -3.429500
		CHANNELS 3 Xrotation Yrotation Zrotation
		JOINT RightLeg
		{
			OFFSET -1.745560 -36.997807 10.304700
			CHANNELS 3 Xrotation Yrotation Zrotation
			JOINT RightFoot
			{
				OFFSET 1.745558 -29.803308 -13.615400
				CHANNELS 3 Xrotation Yrotation Zrotation
				JOINT RightToeBase
				{
					OFFSET -1.181900 -18.539904 15.226099
					CHANNELS 3 Xrotation Yrotation Zrotation
					JOINT RightToe_End
					{
						OFFSET 0.863701 1.402801 16.534700
						CHANNELS 3 Xrotation Yrotation Zrotation
						End Site
						{
							OFFSET 0.000000 16.616566 0.000000
						}
					}
				}
			}
		}
	}
}
MOTION
Frames: 4
Frame Time: 0.033333
-0.356730 28.291580 -8.464005 67.485069 1.939478 0.040173 1.289443 -0.247786 -2.722849 2.341062 -1.036324 -1.002639 2.357615 -0.977295 -0.965663 2.179398 -1.394681 2.312897 -3.930527 -5.678880 4.742811 0.000000 0.000000 -0.000000 -0.604782 1.056964 19.081098 -60.317810 -42.638600 -67.185340 -0.000013 -25.909845 -0.000023 12.062862 2.545500 74.203175 -18.358551 -13.823525 1.316320 10.255811 14.268617 16.749516 11.192879 -21.511542 56.575051 0.000001 -0.000000 0.000000 -3.904770 30.033441 8.626482 0.081717 0.976142 -9.570963 0.081931 0.977363 -9.582949 0.000000 0.000002 -0.000005 0.081137 11.015764 0.328677 0.070895 0.909583 -8.912837 0.098878 1.072893 -10.530181 0.000001 -0.000001 0.000005 0.073560 2.911657 -1.085588 0.081935 0.977370 -9.583134 0.119369 1.177816 -11.573682 0.000001 0.000001 0.000004 0.277428 -15.039737 -2.956905 0.081931 0.977382 -9.582939 0.081923 0.977349 -9.582954 -0.000001 0.000001 0.000002 0.262421 1.518169 -7.979440 -65.216019 40.488935 69.018980 0.000025 25.340270 -0.000008 22.375167 -4.877301 -75.609689 -24.976933 6.410301 -4.870834 16.353047 -14.181774 -4.256658 25.549463 33.596597 -60.723305 0.000000 0.000001 0.000003 -1.445518 17.254916 5.239360 0.017649 -0.405444 4.983571 0.017646 -0.405445 4.983577 -0.000000 -0.000002 0.000003 -0.606603 7.350498 4.247982 0.017645 -0.405471 4.983563 0.034565 -0.566931 6.977110 0.000000 0.000001 -0.000006 0.068802 -2.721502 5.403016 0.011294 -0.324515 3.986836 0.025407 -0.486258 5.980325 0.000000 -0.000001 -0.000003 1.912987 -17.693721 6.504454 0.017645 -0.405437 4.983575 0.017650 -0.405464 4.983578 -0.000000 -0.000001 0.000000 -9.305931 10.732491 -0.600331 29.530292 -6.879071 3.924274 12.013467 -4.465827 16.581905 -109.833451 -2.297918 -3.841609 -0.000001 -0.000003 -0.000001 -7.081699 -30.443970 -16.652522 26.475826 10.600600 10.315038 -2.219086 31.693567 -16.748525 -94.467643 3.144855 0.292213 -0.000001 0.000001 0.000001 
-0.314965 28.494659 -8.269272 67.543946 1.970973 -0.132042 1.361769 -0.284281 -2.495797 2.408793 -1.024597 -0.950030 2.425970 -0.959236 -0.915862 2.179376 -1.394681 2.336511 -3.996265 -5.678896 4.725003 -0.000000 0.000000 -0.000000 -0.595332 1.020876 19.222188 -60.396166 -42.658209 -67.227544 0.000005 -25.706670 -0.000006 11.759330 2.350474 74.513170 -18.358546 -13.823486 1.316339 10.255817 14.268562 16.749509 11.192896 -21.511542 56.575058 0.000000 -0.000000 0.000000 -3.904772 30.033452 8.626489 0.081719 0.976172 -9.570959 0.081933 0.977363 -9.582945 -0.000001 0.000004 -0.000002 0.081141 11.015766 0.328678 0.070891 0.909619 -8.912842 0.098878 1.072904 -10.530178 0.000001 0.000000 0.000003 0.073565 2.911666 -1.085583 0.081934 0.977376 -9.583143 0.119366 1.177812 -11.573677 0.000001 -0.000003 0.000009 0.277424 -15.039727 -2.956915 0.081931 0.977348 -9.582936 0.081927 0.977367 -9.582941 -0.000001 0.000003 0.000001 0.265985 1.562431 -7.885570 -65.280175 40.598241 68.845172 -0.000007 25.381953 0.000004 22.464146 -4.890867 -75.700558 -24.976043 6.395680 -4.873775 16.354207 -14.196235 -4.258423 25.538844 33.585352 -60.720696 0.000001 -0.000001 -0.000000 -1.446655 17.253683 5.253896 0.017756 -0.406628 4.998212 0.017752 -0.406645 4.998217 -0.000000 0.000000 0.000001 -0.609032 7.349194 4.262485 0.017756 -0.406700 4.998646 0.034707 -0.568114 6.991754 0.000001 0.000001 -0.000004 0.068916 -2.722649 5.417651 0.011378 -0.325685 4.001482 0.025523 -0.487461 5.994966 -0.000000 -0.000000 0.000000 1.916935 -17.694360 6.519309 0.017749 -0.406647 4.998206 0.017747 -0.406638 4.998206 0.000000 -0.000000 0.000006 -9.225227 10.699243 -0.570146 28.935284 -6.923316 3.944031 12.324717 -4.231648 16.615212 -109.715548 -2.103555 -3.788066 0.000000 -0.000002 -0.000001 -6.426271 -30.516220 -16.025774 25.428279 10.625619 10.334674 -2.164690 31.783421 -16.722258 -93.809260 3.203265 0.064562 0.000002 0.000000 -0.000000 
-0.249266 28.694092 -8.031174 67.613805 2.040076 -0.315656 1.407156 -0.332642 -2.236288 2.462392 -1.014698 -0.897839 2.480037 -0.946538 -0.865884 2.179416 -1.394679 2.372303 -3.893773 -5.666739 4.714252 -0.000001 0.000001 0.000000 -0.586708 0.994509 19.248856 -60.504425 -42.699491 -67.319799 0.000008 -25.483586 0.000002 11.547853 2.148806 74.780046 -18.358558 -13.823496 1.316326 10.255812 14.268588 16.749524 11.192902 -21.511556 56.575068 0.000000 -0.000000 -0.000001 -3.904773 30.033452 8.626485 0.081726 0.976159 -9.570963 0.081929 0.977369 -9.582953 0.000003 -0.000001 -0.000002 0.081134 11.015775 0.328682 0.070895 0.909584 -8.912833 0.098873 1.072930 -10.530193 -0.000001 -0.000002 -0.000000 0.073561 2.911662 -1.085585 0.081929 0.977373 -9.583146 0.119370 1.177830 -11.573680 -0.000001 0.000000 0.000008 0.277422 -15.039706 -2.956902 0.081932 0.977361 -9.582940 0.081926 0.977355 -9.582947 -0.000000 -0.000000 0.000003 0.266403 1.559711 -7.741749 -65.365573 40.691289 68.742050 -0.000014 25.397828 0.000009 22.664144 -4.873589 -75.735569 -24.968702 6.353023 -4.882097 16.357559 -14.238538 -4.264430 25.507857 33.552550 -60.713080 0.000000 -0.000001 0.000001 -1.446338 17.250235 5.296509 0.018050 -0.410116 5.040921 0.018052 -0.410127 5.040929 0.000000 -0.000001 -0.000001 -0.616121 7.345280 4.304836 0.018064 -0.410270 5.042646 0.035133 -0.571585 7.034484 0.000000 0.000002 -0.000008 0.069244 -2.726126 5.460381 0.011621 -0.329173 4.044185 0.025890 -0.490922 6.037684 0.000000 0.000001 -0.000002 1.917365 -17.697831 6.562141 0.018057 -0.410109 5.040930 0.018045 -0.410116 5.040929 0.000000 -0.000002 0.000002 -9.093335 10.660914 -0.492161 28.250480 -6.986256 3.940500 12.621809 -4.198217 16.640757 -109.530887 -2.035015 -3.725973 -0.000000 -0.000002 -0.000000 -5.687766 -30.632340 -15.378325 24.215850 10.660892 10.359534 -2.057409 31.875817 -16.677749 -93.134021 3.262011 -0.172294 0.000001 0.000001 0.000000 
-0.160257 28.862930 -7.715553 67.688595 2.077373 -0.490472 1.393705 -0.371574 -1.970779 2.474031 -1.001872 -0.847578 2.492085 -0.929536 -0.816599 2.158890 -1.405002 2.422703 -3.762878 -5.641063 4.714608 -0.000000 0.000000 -0.000000 -0.566055 0.918976 19.333703 -60.472740 -42.698142 -67.453575 -0.000007 -25.253779 -0.000008 11.312034 1.951969 75.088238 -18.358556 -13.823507 1.316328 10.255814 14.268569 16.749511 11.192902 -21.511560 56.575061 0.000000 0.000001 -0.000002 -3.904780 30.033459 8.626485 0.081724 0.976137 -9.570961 0.081923 0.977357 -9.582951 0.000000 0.000001 -0.000004 0.081139 11.015780 0.328683 0.070889 0.909593 -8.912849 0.098878 1.072928 -10.530197 -0.000001 0.000001 0.000005 0.073565 2.911643 -1.085581 0.081929 0.977393 -9.583141 0.119370 1.177830 -11.573686 0.000001 -0.000000 0.000004 0.277429 -15.039738 -2.956908 0.081932 0.977360 -9.582933 0.081923 0.977370 -9.582949 -0.000000 0.000001 0.000001 0.283194 1.668374 -7.665565 -65.156207 40.762842 68.489667 0.000022 25.485341 -0.000031 22.785967 -4.863927 -75.815011 -24.949913 6.289203 -4.903904 16.362987 -14.306815 -4.273438 25.457846 33.499520 -60.700820 -0.000000 0.000000 0.000002 -1.445705 17.243265 5.365184 0.018556 -0.415700 5.109939 0.018550 -0.415710 5.109940 -0.000000 -0.000002 0.000003 -0.627573 7.338937 4.373242 0.018574 -0.416031 5.113736 0.035828 -0.577171 7.103510 -0.000000 0.000000 -0.000004 0.069783 -2.731709 5.529417 0.012018 -0.334779 4.113199 0.026490 -0.496499 6.106704 -0.000000 0.000001 -0.000002 1.918066 -17.703444 6.631348 0.018548 -0.415694 5.109936 0.018550 -0.415712 5.109939 0.000000 -0.000000 0.000002 -8.798771 10.663447 -0.392098 27.379486 -7.072594 3.901697 12.909199 -4.308013 16.642808 -109.262830 -2.069042 -3.651140 -0.000000 -0.000002 -0.000001 -4.869640 -30.760297 -14.745782 22.795172 10.695584 10.386359 -1.846989 31.952957 -16.544429 -92.500583 3.308727 -0.393325 0.000000 0.000001 0.000000 
